<svg id="visual" viewBox="0 0 900 600" width="900" height="600" xmlns="http://www.w3.org/2000/svg" xmlns:xlink="http://www.w3.org/1999/xlink" version="1.1"><rect x="0" y="0" width="900" height="600" fill="#16000e"></rect><path d="M0 267L21.5 274.2C43 281.3 86 295.7 128.8 294.7C171.7 293.7 214.3 277.3 257.2 294.5C300 311.7 343 362.3 385.8 346.7C428.7 331 471.3 249 514.2 252.3C557 255.7 600 344.3 642.8 359.3C685.7 374.3 728.3 315.7 771.2 279C814 242.3 857 227.7 878.5 220.3L900 213L900 601L878.5 601C857 601 814 601 771.2 601C728.3 601 685.7 601 642.8 601C600 601 557 601 514.2 601C471.3 601 428.7 601 385.8 601C343 601 300 601 257.2 601C214.3 601 171.7 601 128.8 601C86 601 43 601 21.5 601L0 601Z" fill="#a30461" stroke-linecap="round" stroke-linejoin="miter"></path></svg>